<svg width="18" height="19" viewBox="0 0 18 19" fill="none" xmlns="http://www.w3.org/2000/svg">
<path d="M17.4001 1.11339C17.2767 0.989783 17.1302 0.891719 16.9689 0.824811C16.8076 0.757902 16.6347 0.723462 16.4601 0.723462C16.2854 0.723462 16.1125 0.757902 15.9512 0.824811C15.7899 0.891719 15.6434 0.989783 15.5201 1.11339L9.00005 7.62005L2.48005 1.10005C2.35661 0.976611 2.21006 0.878691 2.04878 0.811885C1.88749 0.745078 1.71463 0.710693 1.54005 0.710693C1.36548 0.710693 1.19261 0.745078 1.03133 0.811885C0.870044 0.878691 0.723496 0.976611 0.600054 1.10005C0.476611 1.2235 0.378691 1.37004 0.311885 1.53133C0.245078 1.69261 0.210693 1.86548 0.210693 2.04005C0.210693 2.21463 0.245078 2.38749 0.311885 2.54878C0.378691 2.71006 0.476611 2.85661 0.600054 2.98005L7.12005 9.50005L0.600054 16.0201C0.476611 16.1435 0.378691 16.29 0.311885 16.4513C0.245078 16.6126 0.210693 16.7855 0.210693 16.9601C0.210693 17.1346 0.245078 17.3075 0.311885 17.4688C0.378691 17.6301 0.476611 17.7766 0.600054 17.9001C0.723496 18.0235 0.870044 18.1214 1.03133 18.1882C1.19261 18.255 1.36548 18.2894 1.54005 18.2894C1.71463 18.2894 1.88749 18.255 2.04878 18.1882C2.21006 18.1214 2.35661 18.0235 2.48005 17.9001L9.00005 11.3801L15.5201 17.9001C15.6435 18.0235 15.79 18.1214 15.9513 18.1882C16.1126 18.255 16.2855 18.2894 16.4601 18.2894C16.6346 18.2894 16.8075 18.255 16.9688 18.1882C17.1301 18.1214 17.2766 18.0235 17.4001 17.9001C17.5235 17.7766 17.6214 17.6301 17.6882 17.4688C17.755 17.3075 17.7894 17.1346 17.7894 16.9601C17.7894 16.7855 17.755 16.6126 17.6882 16.4513C17.6214 16.29 17.5235 16.1435 17.4001 16.0201L10.8801 9.50005L17.4001 2.98005C17.9067 2.47339 17.9067 1.62005 17.4001 1.11339V1.11339Z" fill="#1E1B18"/>
</svg>
