<svg width="25" height="25" viewBox="0 0 25 25" fill="none" xmlns="http://www.w3.org/2000/svg">
<path d="M0 20.2803V24.3337C0 24.707 0.293333 25.0003 0.666667 25.0003H4.72C4.89333 25.0003 5.06667 24.9337 5.18667 24.8003L19.7467 10.2537L14.7467 5.25366L0.2 19.8003C0.0666668 19.9337 0 20.0937 0 20.2803ZM23.6133 6.387C23.7369 6.26364 23.835 6.11713 23.9019 5.95583C23.9688 5.79453 24.0033 5.62162 24.0033 5.447C24.0033 5.27237 23.9688 5.09946 23.9019 4.93816C23.835 4.77687 23.7369 4.63035 23.6133 4.507L20.4933 1.387C20.37 1.26339 20.2235 1.16533 20.0622 1.09842C19.9009 1.03151 19.728 0.99707 19.5533 0.99707C19.3787 0.99707 19.2058 1.03151 19.0445 1.09842C18.8832 1.16533 18.7367 1.26339 18.6133 1.387L16.1733 3.827L21.1733 8.827L23.6133 6.387Z" fill="#FAFAFA"/>
</svg>
