<svg width="22" height="19" viewBox="0 0 22 19" fill="none" xmlns="http://www.w3.org/2000/svg">
<path d="M11 3.97039C13.76 3.97039 16 6.21039 16 8.97039C16 9.48039 15.9 9.97039 15.76 10.4304L18.82 13.4904C20.21 12.2604 21.31 10.7204 22 8.96039C20.27 4.58039 16 1.47039 11 1.47039C9.73 1.47039 8.51 1.67039 7.36 2.04039L9.53 4.21039C10 4.07039 10.49 3.97039 11 3.97039ZM1.71 0.630391C1.6173 0.722904 1.54375 0.832793 1.49357 0.953766C1.44339 1.07474 1.41756 1.20442 1.41756 1.33539C1.41756 1.46636 1.44339 1.59604 1.49357 1.71702C1.54375 1.83799 1.6173 1.94788 1.71 2.04039L3.68 4.01039C2.03792 5.31078 0.76844 7.02182 0 8.97039C1.73 13.3604 6 16.4704 11 16.4704C12.52 16.4704 13.97 16.1704 15.31 15.6504L18.03 18.3704C18.217 18.5574 18.4706 18.6624 18.735 18.6624C18.9994 18.6624 19.253 18.5574 19.44 18.3704C19.627 18.1834 19.732 17.9298 19.732 17.6654C19.732 17.401 19.627 17.1474 19.44 16.9604L3.13 0.630391C2.74 0.240391 2.1 0.240391 1.71 0.630391ZM11 13.9704C8.24 13.9704 6 11.7304 6 8.97039C6 8.20039 6.18 7.47039 6.49 6.83039L8.06 8.40039C8.03 8.58039 8 8.77039 8 8.97039C8 10.6304 9.34 11.9704 11 11.9704C11.2 11.9704 11.38 11.9404 11.57 11.9004L13.14 13.4704C12.49 13.7904 11.77 13.9704 11 13.9704ZM13.97 8.64039C13.8983 7.96476 13.5971 7.33413 13.1167 6.8537C12.6363 6.37327 12.0056 6.07209 11.33 6.00039L13.97 8.64039Z" fill="black"/>
</svg>
