<svg width="40" height="41" viewBox="0 0 40 41" fill="none" xmlns="http://www.w3.org/2000/svg">
<rect y="0.5" width="40" height="40" rx="20" fill="#00FAAC"/>
<path d="M16.9999 24.67L13.5299 21.2C13.3429 21.013 13.0893 20.9079 12.8249 20.9079C12.5605 20.9079 12.3069 21.013 12.1199 21.2C11.9329 21.3869 11.8279 21.6405 11.8279 21.905C11.8279 22.0359 11.8537 22.1655 11.9038 22.2865C11.9539 22.4075 12.0273 22.5174 12.1199 22.61L16.2999 26.79C16.6899 27.18 17.3199 27.18 17.7099 26.79L28.2899 16.21C28.4769 16.023 28.5819 15.7694 28.5819 15.505C28.5819 15.2405 28.4769 14.9869 28.2899 14.8C28.1029 14.613 27.8493 14.5079 27.5849 14.5079C27.3205 14.5079 27.0669 14.613 26.8799 14.8L16.9999 24.67Z" fill="#1E1B18"/>
</svg>
