<svg width="18" height="13" viewBox="0 0 18 13" fill="none" xmlns="http://www.w3.org/2000/svg">
<path d="M5.66714 10.1701L2.19714 6.70008C2.01016 6.5131 1.75656 6.40806 1.49214 6.40806C1.22771 6.40806 0.974115 6.5131 0.787138 6.70008C0.60016 6.88705 0.495117 7.14065 0.495117 7.40508C0.495117 7.53601 0.520906 7.66566 0.571011 7.78662C0.621116 7.90758 0.694556 8.0175 0.787138 8.11008L4.96714 12.2901C5.35714 12.6801 5.98714 12.6801 6.37714 12.2901L16.9571 1.71008C17.1441 1.5231 17.2492 1.2695 17.2492 1.00508C17.2492 0.740651 17.1441 0.487055 16.9571 0.300077C16.7702 0.1131 16.5166 0.00805664 16.2521 0.00805664C15.9877 0.00805664 15.7341 0.1131 15.5471 0.300077L5.66714 10.1701Z" fill="current"/>
</svg>
