<svg width="40" height="40" viewBox="0 0 40 40" fill="none" xmlns="http://www.w3.org/2000/svg">
<rect width="40" height="40" rx="20" fill="#FFD1AF"/>
<path d="M15.9201 15.54C15.1201 15.2 14.7801 14.21 15.2601 13.49C16.2301 12.05 17.8501 11 19.9901 11C22.3401 11 23.9501 12.07 24.7701 13.41C25.4701 14.56 25.8801 16.71 24.8001 18.31C23.6001 20.08 22.4501 20.62 21.8301 21.76C21.6801 22.03 21.5901 22.25 21.5301 22.7C21.4401 23.43 20.8401 24 20.1001 24C19.2301 24 18.5201 23.25 18.6201 22.38C18.6801 21.87 18.8001 21.34 19.0801 20.84C19.8501 19.45 21.3301 18.63 22.1901 17.4C23.1001 16.11 22.5901 13.7 20.0101 13.7C18.8401 13.7 18.0801 14.31 17.6101 15.04C17.2601 15.61 16.5301 15.79 15.9201 15.54ZM22.0001 28C22.0001 29.1 21.1001 30 20.0001 30C18.9001 30 18.0001 29.1 18.0001 28C18.0001 26.9 18.9001 26 20.0001 26C21.1001 26 22.0001 26.9 22.0001 28Z" fill="#1E1B18"/>
</svg>
