<svg width="12" height="19" viewBox="0 0 12 19" fill="none" xmlns="http://www.w3.org/2000/svg">
<path d="M1.75381 4.54C0.953806 4.2 0.613806 3.21 1.09381 2.49C2.06381 1.05 3.68381 0 5.82381 0C8.17381 0 9.78381 1.07 10.6038 2.41C11.3038 3.56 11.7138 5.71 10.6338 7.31C9.43381 9.08 8.28381 9.62 7.66381 10.76C7.51381 11.03 7.42381 11.25 7.36381 11.7C7.27381 12.43 6.67381 13 5.93381 13C5.06381 13 4.35381 12.25 4.45381 11.38C4.51381 10.87 4.63381 10.34 4.91381 9.84C5.68381 8.45 7.16381 7.63 8.02381 6.4C8.93381 5.11 8.42381 2.7 5.84381 2.7C4.67381 2.7 3.91381 3.31 3.44381 4.04C3.09381 4.61 2.36381 4.79 1.75381 4.54ZM7.83381 17C7.83381 18.1 6.93381 19 5.83381 19C4.73381 19 3.83381 18.1 3.83381 17C3.83381 15.9 4.73381 15 5.83381 15C6.93381 15 7.83381 15.9 7.83381 17Z" fill="current"/>
</svg>
