<svg width="41" height="40" viewBox="0 0 41 40" fill="none" xmlns="http://www.w3.org/2000/svg">
<rect x="0.5" width="40" height="40" rx="20" fill="#FF59B3"/>
<path d="M26.8002 13.71C26.7077 13.6173 26.5978 13.5437 26.4768 13.4935C26.3559 13.4434 26.2262 13.4175 26.0952 13.4175C25.9643 13.4175 25.8346 13.4434 25.7136 13.4935C25.5926 13.5437 25.4827 13.6173 25.3902 13.71L20.5002 18.59L15.6102 13.7C15.5176 13.6074 15.4077 13.534 15.2868 13.4839C15.1658 13.4337 15.0362 13.408 14.9052 13.408C14.7743 13.408 14.6446 13.4337 14.5237 13.4839C14.4027 13.534 14.2928 13.6074 14.2002 13.7C14.1076 13.7926 14.0342 13.9025 13.9841 14.0234C13.934 14.1444 13.9082 14.274 13.9082 14.405C13.9082 14.5359 13.934 14.6656 13.9841 14.7865C14.0342 14.9075 14.1076 15.0174 14.2002 15.11L19.0902 20L14.2002 24.89C14.1076 24.9826 14.0342 25.0925 13.9841 25.2134C13.934 25.3344 13.9082 25.464 13.9082 25.595C13.9082 25.7259 13.934 25.8556 13.9841 25.9765C14.0342 26.0975 14.1076 26.2074 14.2002 26.3C14.2928 26.3926 14.4027 26.466 14.5237 26.5161C14.6446 26.5662 14.7743 26.592 14.9052 26.592C15.0362 26.592 15.1658 26.5662 15.2868 26.5161C15.4077 26.466 15.5176 26.3926 15.6102 26.3L20.5002 21.41L25.3902 26.3C25.4828 26.3926 25.5927 26.466 25.7137 26.5161C25.8346 26.5662 25.9643 26.592 26.0952 26.592C26.2262 26.592 26.3558 26.5662 26.4768 26.5161C26.5977 26.466 26.7076 26.3926 26.8002 26.3C26.8928 26.2074 26.9662 26.0975 27.0164 25.9765C27.0665 25.8556 27.0922 25.7259 27.0922 25.595C27.0922 25.464 27.0665 25.3344 27.0164 25.2134C26.9662 25.0925 26.8928 24.9826 26.8002 24.89L21.9102 20L26.8002 15.11C27.1802 14.73 27.1802 14.09 26.8002 13.71Z" fill="#1E1B18"/>
</svg>
